<?xml version="1.0" encoding="UTF-8" standalone="no"?>
<!DOCTYPE svg PUBLIC "-//W3C//DTD SVG 1.1//EN" "http://www.w3.org/Graphics/SVG/1.1/DTD/svg11.dtd">
<svg version="1.1" xmlns="http://www.w3.org/2000/svg" xmlns:xlink="http://www.w3.org/1999/xlink" preserveAspectRatio="xMidYMid meet" viewBox="0 0 640 640" width="640" height="640"><defs><path d="M60.71 276.19C55.59 276.19 51.43 272.03 51.43 266.9C51.43 261.78 55.59 257.62 60.71 257.62C65.84 257.62 70 261.78 70 266.9C70 272.03 65.84 276.19 60.71 276.19Z" id="aovWKbSke"></path><path d="M60.71 276.19C55.59 276.19 51.43 272.03 51.43 266.9C51.43 261.78 55.59 257.62 60.71 257.62C65.84 257.62 70 261.78 70 266.9C70 272.03 65.84 276.19 60.71 276.19Z" id="aeSmVQY39"></path><path d="M194.6 340L380 375.56L326.35 494.6L265.24 395.4" id="a15IaB78Z1"></path><path d="M257.3 395.4L267.62 255.71L380 366.83L450 304.92L270 403.33L362.86 192.22L362.06 281.9L460 223.97L458.1 303.33L560 308.1L501.75 400L380 377.14L460 490L326.35 494.6L225.56 496.98L264.44 397.78L138.25 440L67.62 263.65L153.33 266.83L73.97 370L60 270L193.02 342.22L358.1 182.7L270 247.78L160 267.62L115.24 200" id="f1TFfndiBW"></path><path d="M115.24 205.71L60 264.44" id="d27zoE7TV"></path><path d="M115.24 205.71L60 264.44" id="d1toQAmQIz"></path><path d="M73.17 367.62L60 270" id="d27yMuAVOl"></path><path d="M326.35 493.02L227.94 496.98" id="bnBT5xchR"></path><path d="M460 223.97L500 400L380 375.56" id="bCYLpgvOq"></path><path d="M325.16 505.4C320.03 505.4 315.87 501.24 315.87 496.11C315.87 490.99 320.03 486.83 325.16 486.83C330.28 486.83 334.44 490.99 334.44 496.11C334.44 501.24 330.28 505.4 325.16 505.4Z" id="a1hUgqxWKY"></path><path d="M325.16 505.4C320.03 505.4 315.87 501.24 315.87 496.11C315.87 490.99 320.03 486.83 325.16 486.83C330.28 486.83 334.44 490.99 334.44 496.11C334.44 501.24 330.28 505.4 325.16 505.4Z" id="d2XjKr9cgl"></path><path d="M154.92 263.65L74.76 367.62L193.81 343.81L60 270" id="b1mNyXFUEn"></path><path d="M459.29 233.97C454.16 233.97 450 229.81 450 224.68C450 219.56 454.16 215.4 459.29 215.4C464.41 215.4 468.57 219.56 468.57 224.68C468.57 229.81 464.41 233.97 459.29 233.97Z" id="eA087trwp"></path><path d="M459.29 233.97C454.16 233.97 450 229.81 450 224.68C450 219.56 454.16 215.4 459.29 215.4C464.41 215.4 468.57 219.56 468.57 224.68C468.57 229.81 464.41 233.97 459.29 233.97Z" id="j1HYgNKJRY"></path><path d="M64.44 262.86L160 267.62L116.03 202.54" id="exi4nFqYk"></path><path d="M160.71 275.71C155.59 275.71 151.43 271.55 151.43 266.43C151.43 261.3 155.59 257.14 160.71 257.14C165.84 257.14 170 261.3 170 266.43C170 271.55 165.84 275.71 160.71 275.71Z" id="c4wzPTzxmI"></path><path d="M160.71 275.71C155.59 275.71 151.43 271.55 151.43 266.43C151.43 261.3 155.59 257.14 160.71 257.14C165.84 257.14 170 261.3 170 266.43C170 271.55 165.84 275.71 160.71 275.71Z" id="a1zVvoX8Tc"></path><path d="M380.71 383.49C375.59 383.49 371.43 379.33 371.43 374.21C371.43 369.08 375.59 364.92 380.71 364.92C385.84 364.92 390 369.08 390 374.21C390 379.33 385.84 383.49 380.71 383.49Z" id="a60tJmwFyH"></path><path d="M380.71 383.49C375.59 383.49 371.43 379.33 371.43 374.21C371.43 369.08 375.59 364.92 380.71 364.92C385.84 364.92 390 369.08 390 374.21C390 379.33 385.84 383.49 380.71 383.49Z" id="a7GjDT9Ik"></path><path d="M137.46 437.46L196.98 340L227.14 496.19L500 400L362.06 283.49L160 270L190 343.02L76.35 367.62" id="i3pELviWAi"></path><path d="M560.71 318.57C555.59 318.57 551.43 314.41 551.43 309.29C551.43 304.16 555.59 300 560.71 300C565.84 300 570 304.16 570 309.29C570 314.41 565.84 318.57 560.71 318.57Z" id="a6SupREt"></path><path d="M560.71 318.57C555.59 318.57 551.43 314.41 551.43 309.29C551.43 304.16 555.59 300 560.71 300C565.84 300 570 304.16 570 309.29C570 314.41 565.84 318.57 560.71 318.57Z" id="a3mMeKuni"></path><path d="M465 498.57C459.88 498.57 455.71 494.41 455.71 489.29C455.71 484.16 459.88 480 465 480C470.12 480 474.29 484.16 474.29 489.29C474.29 494.41 470.12 498.57 465 498.57Z" id="a30KrCvOvZ"></path><path d="M465 498.57C459.88 498.57 455.71 494.41 455.71 489.29C455.71 484.16 459.88 480 465 480C470.12 480 474.29 484.16 474.29 489.29C474.29 494.41 470.12 498.57 465 498.57Z" id="hnEAajvx"></path><path d="M360.71 196.35C355.59 196.35 351.43 192.19 351.43 187.06C351.43 181.94 355.59 177.78 360.71 177.78C365.84 177.78 370 181.94 370 187.06C370 192.19 365.84 196.35 360.71 196.35Z" id="ipRi92NO8"></path><path d="M360.71 196.35C355.59 196.35 351.43 192.19 351.43 187.06C351.43 181.94 355.59 177.78 360.71 177.78C365.84 177.78 370 181.94 370 187.06C370 192.19 365.84 196.35 360.71 196.35Z" id="cD36SsXFN"></path><path d="M194.05 350C188.92 350 184.76 345.84 184.76 340.71C184.76 335.59 188.92 331.43 194.05 331.43C199.17 331.43 203.33 335.59 203.33 340.71C203.33 345.84 199.17 350 194.05 350Z" id="aaesWoEOt"></path><path d="M194.05 350C188.92 350 184.76 345.84 184.76 340.71C184.76 335.59 188.92 331.43 194.05 331.43C199.17 331.43 203.33 335.59 203.33 340.71C203.33 345.84 199.17 350 194.05 350Z" id="a3wyOJk3JK"></path><path d="M139.29 448.57C134.16 448.57 130 444.41 130 439.29C130 434.16 134.16 430 139.29 430C144.41 430 148.57 434.16 148.57 439.29C148.57 444.41 144.41 448.57 139.29 448.57Z" id="c1V8U253Z"></path><path d="M139.29 448.57C134.16 448.57 130 444.41 130 439.29C130 434.16 134.16 430 139.29 430C144.41 430 148.57 434.16 148.57 439.29C148.57 444.41 144.41 448.57 139.29 448.57Z" id="c2xfLXeXcA"></path><path d="M269.29 256.19C264.16 256.19 260 252.03 260 246.9C260 241.78 264.16 237.62 269.29 237.62C274.41 237.62 278.57 241.78 278.57 246.9C278.57 252.03 274.41 256.19 269.29 256.19Z" id="ccV9tAcR2"></path><path d="M269.29 256.19C264.16 256.19 260 252.03 260 246.9C260 241.78 264.16 237.62 269.29 237.62C274.41 237.62 278.57 241.78 278.57 246.9C278.57 252.03 274.41 256.19 269.29 256.19Z" id="c2BlaNOKx9"></path><path d="M362.38 292.22C357.26 292.22 353.1 288.06 353.1 282.94C353.1 277.81 357.26 273.65 362.38 273.65C367.51 273.65 371.67 277.81 371.67 282.94C371.67 288.06 367.51 292.22 362.38 292.22Z" id="c5iFUqWpEV"></path><path d="M362.38 292.22C357.26 292.22 353.1 288.06 353.1 282.94C353.1 277.81 357.26 273.65 362.38 273.65C367.51 273.65 371.67 277.81 371.67 282.94C371.67 288.06 367.51 292.22 362.38 292.22Z" id="b16UpIT06a"></path><path d="M262.3 408.57C257.18 408.57 253.02 404.41 253.02 399.29C253.02 394.16 257.18 390 262.3 390C267.43 390 271.59 394.16 271.59 399.29C271.59 404.41 267.43 408.57 262.3 408.57Z" id="h6jJx8KcTY"></path><path d="M262.3 408.57C257.18 408.57 253.02 404.41 253.02 399.29C253.02 394.16 257.18 390 262.3 390C267.43 390 271.59 394.16 271.59 399.29C271.59 404.41 267.43 408.57 262.3 408.57Z" id="bBInmeinR"></path><path d="M456.43 313.81C451.3 313.81 447.14 309.65 447.14 304.52C447.14 299.4 451.3 295.24 456.43 295.24C461.55 295.24 465.71 299.4 465.71 304.52C465.71 309.65 461.55 313.81 456.43 313.81Z" id="aycwmFlu0"></path><path d="M456.43 313.81C451.3 313.81 447.14 309.65 447.14 304.52C447.14 299.4 451.3 295.24 456.43 295.24C461.55 295.24 465.71 299.4 465.71 304.52C465.71 309.65 461.55 313.81 456.43 313.81Z" id="d23b3FaDmB"></path><path d="M115.63 213.02C110.51 213.02 106.35 208.86 106.35 203.73C106.35 198.61 110.51 194.44 115.63 194.44C120.76 194.44 124.92 198.61 124.92 203.73C124.92 208.86 120.76 213.02 115.63 213.02Z" id="e10JLQ6xb1"></path><path d="M115.63 213.02C110.51 213.02 106.35 208.86 106.35 203.73C106.35 198.61 110.51 194.44 115.63 194.44C120.76 194.44 124.92 198.61 124.92 203.73C124.92 208.86 120.76 213.02 115.63 213.02Z" id="b3W8ef1NJ8"></path><path d="M60.71 276.19C55.59 276.19 51.43 272.03 51.43 266.9C51.43 261.78 55.59 257.62 60.71 257.62C65.84 257.62 70 261.78 70 266.9C70 272.03 65.84 276.19 60.71 276.19Z" id="c1Wi7zRSFd"></path><path d="M60.71 276.19C55.59 276.19 51.43 272.03 51.43 266.9C51.43 261.78 55.59 257.62 60.71 257.62C65.84 257.62 70 261.78 70 266.9C70 272.03 65.84 276.19 60.71 276.19Z" id="c2DfPhUzYK"></path><path d="M230 506.51C224.88 506.51 220.71 502.35 220.71 497.22C220.71 492.1 224.88 487.94 230 487.94C235.12 487.94 239.29 492.1 239.29 497.22C239.29 502.35 235.12 506.51 230 506.51Z" id="c1SE5FU7g"></path><path d="M230 506.51C224.88 506.51 220.71 502.35 220.71 497.22C220.71 492.1 224.88 487.94 230 487.94C235.12 487.94 239.29 492.1 239.29 497.22C239.29 502.35 235.12 506.51 230 506.51Z" id="a7zQzVs0i6"></path><path d="M500.71 409.29C495.59 409.29 491.43 405.12 491.43 400C491.43 394.88 495.59 390.71 500.71 390.71C505.84 390.71 510 394.88 510 400C510 405.12 505.84 409.29 500.71 409.29Z" id="a1yvzJKWNB"></path><path d="M500.71 409.29C495.59 409.29 491.43 405.12 491.43 400C491.43 394.88 495.59 390.71 500.71 390.71C505.84 390.71 510 394.88 510 400C510 405.12 505.84 409.29 500.71 409.29Z" id="b4vJGqayxm"></path><path d="M76.27 378.57C71.14 378.57 66.98 374.41 66.98 369.29C66.98 364.16 71.14 360 76.27 360C81.39 360 85.56 364.16 85.56 369.29C85.56 374.41 81.39 378.57 76.27 378.57Z" id="c18r7PyRY1"></path><path d="M76.27 378.57C71.14 378.57 66.98 374.41 66.98 369.29C66.98 364.16 71.14 360 76.27 360C81.39 360 85.56 364.16 85.56 369.29C85.56 374.41 81.39 378.57 76.27 378.57Z" id="bfbsCZQuZ"></path><path d="M357.3 183.49L193.02 340" id="a43UgEJAr8"></path><path d="M564.44 308.1L457.3 302.54L460 223.97L362.86 280L363.65 190" id="bHr9pPwsn"></path><path d="M560 310L500 400" id="b4g3cpiZe5"></path><path d="M257.3 393.02L267.62 254.13L380 366.03L453.33 303.33" id="g29X8HuFIc"></path><path d="M226.35 493.02L262.86 400" id="b1BnAvUfB8"></path><path d="M227.14 494.6L195.4 340L380 373.97L326.35 493.81L266.83 400" id="a1xByHmQCG"></path><path d="M362.38 292.22C357.26 292.22 353.1 288.06 353.1 282.93C353.1 277.81 357.26 273.65 362.38 273.65C367.51 273.65 371.67 277.81 371.67 282.93C371.67 288.06 367.51 292.22 362.38 292.22Z" id="i35LA0Dmy5"></path><path d="M560 318.81C554.88 318.81 550.72 314.65 550.72 309.52C550.72 304.4 554.88 300.24 560 300.24C565.13 300.24 569.29 304.4 569.29 309.52C569.29 314.65 565.13 318.81 560 318.81Z" id="b1cYgQhJjz"></path><path d="M455.71 313.81C450.59 313.81 446.43 309.65 446.43 304.52C446.43 299.4 450.59 295.24 455.71 295.24C460.84 295.24 465 299.4 465 304.52C465 309.65 460.84 313.81 455.71 313.81Z" id="a39AmmP6SR"></path><path d="M360.71 196.35C355.59 196.35 351.43 192.19 351.43 187.06C351.43 181.94 355.59 177.78 360.71 177.78C365.84 177.78 370 181.94 370 187.06C370 192.19 365.84 196.35 360.71 196.35Z" id="e35KMrZz3"></path><path d="M230 506.51C224.88 506.51 220.72 502.35 220.72 497.22C220.72 492.1 224.88 487.94 230 487.94C235.13 487.94 239.29 492.1 239.29 497.22C239.29 502.35 235.13 506.51 230 506.51Z" id="b9bPn1SfHU"></path><path d="M269.28 256.19C264.16 256.19 260 252.03 260 246.9C260 241.78 264.16 237.62 269.28 237.62C274.41 237.62 278.57 241.78 278.57 246.9C278.57 252.03 274.41 256.19 269.28 256.19Z" id="a17cEMxz5H"></path><path d="M262.3 409.29C257.18 409.29 253.02 405.13 253.02 400C253.02 394.88 257.18 390.72 262.3 390.72C267.43 390.72 271.59 394.88 271.59 400C271.59 405.13 267.43 409.29 262.3 409.29Z" id="h1ZlDidyDM"></path><path d="M193.81 350C188.69 350 184.53 345.84 184.53 340.71C184.53 335.59 188.69 331.43 193.81 331.43C198.94 331.43 203.1 335.59 203.1 340.71C203.1 345.84 198.94 350 193.81 350Z" id="e1BF0ETPIL"></path><path d="M326.35 505.4C321.23 505.4 317.07 501.24 317.07 496.11C317.07 490.99 321.23 486.83 326.35 486.83C331.48 486.83 335.64 490.99 335.64 496.11C335.64 501.24 331.48 505.4 326.35 505.4Z" id="a8r6HzuEW"></path><path d="M380.95 383.49C375.83 383.49 371.67 379.33 371.67 374.2C371.67 369.08 375.83 364.92 380.95 364.92C386.08 364.92 390.24 369.08 390.24 374.2C390.24 379.33 386.08 383.49 380.95 383.49Z" id="b1Iu60RE3K"></path><path d="M500 408.57C494.88 408.57 490.72 404.41 490.72 399.28C490.72 394.16 494.88 390 500 390C505.13 390 509.29 394.16 509.29 399.28C509.29 404.41 505.13 408.57 500 408.57Z" id="b1GcAVlTL0"></path><path d="M459.28 233.97C454.16 233.97 450 229.81 450 224.68C450 219.56 454.16 215.4 459.28 215.4C464.41 215.4 468.57 219.56 468.57 224.68C468.57 229.81 464.41 233.97 459.28 233.97Z" id="o1HregpPJq"></path></defs><g><g><g><use xlink:href="#aovWKbSke" opacity="1" fill="#ff0000" fill-opacity="1"></use><g><use xlink:href="#aovWKbSke" opacity="1" fill-opacity="0" stroke="#000000" stroke-width="1" stroke-opacity="0"></use></g></g><g><use xlink:href="#aeSmVQY39" opacity="1" fill="#000000" fill-opacity="0"></use><g><use xlink:href="#aeSmVQY39" opacity="1" fill-opacity="0" stroke="#ff0000" stroke-width="1" stroke-opacity="1"></use></g></g><g><use xlink:href="#a15IaB78Z1" opacity="1" fill="#000000" fill-opacity="0"></use><g><use xlink:href="#a15IaB78Z1" opacity="1" fill-opacity="0" stroke="#aba4a4" stroke-width="1" stroke-opacity="1"></use></g></g><g><use xlink:href="#f1TFfndiBW" opacity="1" fill="#000000" fill-opacity="0"></use><g><use xlink:href="#f1TFfndiBW" opacity="1" fill-opacity="0" stroke="#aba4a4" stroke-width="1" stroke-opacity="1"></use></g></g><g><use xlink:href="#d27zoE7TV" opacity="1" fill="#ff0000" fill-opacity="1"></use><g><use xlink:href="#d27zoE7TV" opacity="1" fill-opacity="0" stroke="#000000" stroke-width="1" stroke-opacity="0"></use></g></g><g><use xlink:href="#d1toQAmQIz" opacity="1" fill="#000000" fill-opacity="0"></use><g><use xlink:href="#d1toQAmQIz" opacity="1" fill-opacity="0" stroke="#ff0000" stroke-width="1" stroke-opacity="1"></use></g></g><g><use xlink:href="#d27yMuAVOl" opacity="1" fill="#000000" fill-opacity="0"></use><g><use xlink:href="#d27yMuAVOl" opacity="1" fill-opacity="0" stroke="#ff0000" stroke-width="1" stroke-opacity="1"></use></g></g><g><use xlink:href="#bnBT5xchR" opacity="1" fill="#000000" fill-opacity="0"></use><g><use xlink:href="#bnBT5xchR" opacity="1" fill-opacity="0" stroke="#ff0000" stroke-width="1" stroke-opacity="1"></use></g></g><g><use xlink:href="#bCYLpgvOq" opacity="1" fill="#000000" fill-opacity="0"></use><g><use xlink:href="#bCYLpgvOq" opacity="1" fill-opacity="0" stroke="#ff0000" stroke-width="1" stroke-opacity="1"></use></g></g><g><use xlink:href="#a1hUgqxWKY" opacity="1" fill="#ff0000" fill-opacity="1"></use><g><use xlink:href="#a1hUgqxWKY" opacity="1" fill-opacity="0" stroke="#000000" stroke-width="1" stroke-opacity="0"></use></g></g><g><use xlink:href="#d2XjKr9cgl" opacity="1" fill="#000000" fill-opacity="0"></use><g><use xlink:href="#d2XjKr9cgl" opacity="1" fill-opacity="0" stroke="#ff0000" stroke-width="1" stroke-opacity="1"></use></g></g><g><use xlink:href="#b1mNyXFUEn" opacity="1" fill="#000000" fill-opacity="0"></use><g><use xlink:href="#b1mNyXFUEn" opacity="1" fill-opacity="0" stroke="#0045ff" stroke-width="1" stroke-opacity="1"></use></g></g><g><use xlink:href="#eA087trwp" opacity="1" fill="#ff0000" fill-opacity="1"></use><g><use xlink:href="#eA087trwp" opacity="1" fill-opacity="0" stroke="#000000" stroke-width="1" stroke-opacity="0"></use></g></g><g><use xlink:href="#j1HYgNKJRY" opacity="1" fill="#000000" fill-opacity="0"></use><g><use xlink:href="#j1HYgNKJRY" opacity="1" fill-opacity="0" stroke="#ff0000" stroke-width="1" stroke-opacity="1"></use></g></g><g><use xlink:href="#exi4nFqYk" opacity="1" fill="#000000" fill-opacity="0"></use><g><use xlink:href="#exi4nFqYk" opacity="1" fill-opacity="0" stroke="#0045ff" stroke-width="1" stroke-opacity="1"></use></g></g><g><use xlink:href="#c4wzPTzxmI" opacity="1" fill="#aba4a4" fill-opacity="1"></use><g><use xlink:href="#c4wzPTzxmI" opacity="1" fill-opacity="0" stroke="#000000" stroke-width="1" stroke-opacity="0"></use></g></g><g><use xlink:href="#a1zVvoX8Tc" opacity="1" fill="#000000" fill-opacity="0"></use><g><use xlink:href="#a1zVvoX8Tc" opacity="1" fill-opacity="0" stroke="#aba4a4" stroke-width="1" stroke-opacity="1"></use></g></g><g><use xlink:href="#a60tJmwFyH" opacity="1" fill="#ff0000" fill-opacity="1"></use><g><use xlink:href="#a60tJmwFyH" opacity="1" fill-opacity="0" stroke="#000000" stroke-width="1" stroke-opacity="0"></use></g></g><g><use xlink:href="#a7GjDT9Ik" opacity="1" fill="#000000" fill-opacity="0"></use><g><use xlink:href="#a7GjDT9Ik" opacity="1" fill-opacity="0" stroke="#ff0000" stroke-width="1" stroke-opacity="1"></use></g></g><g><use xlink:href="#i3pELviWAi" opacity="1" fill="#000000" fill-opacity="0"></use><g><use xlink:href="#i3pELviWAi" opacity="1" fill-opacity="0" stroke="#aba4a4" stroke-width="1" stroke-opacity="1"></use></g></g><g><use xlink:href="#a6SupREt" opacity="1" fill="#aba4a4" fill-opacity="1"></use><g><use xlink:href="#a6SupREt" opacity="1" fill-opacity="0" stroke="#000000" stroke-width="1" stroke-opacity="0"></use></g></g><g><use xlink:href="#a3mMeKuni" opacity="1" fill="#000000" fill-opacity="0"></use><g><use xlink:href="#a3mMeKuni" opacity="1" fill-opacity="0" stroke="#aba4a4" stroke-width="1" stroke-opacity="1"></use></g></g><g><use xlink:href="#a30KrCvOvZ" opacity="1" fill="#aba4a4" fill-opacity="1"></use><g><use xlink:href="#a30KrCvOvZ" opacity="1" fill-opacity="0" stroke="#000000" stroke-width="1" stroke-opacity="0"></use></g></g><g><use xlink:href="#hnEAajvx" opacity="1" fill="#000000" fill-opacity="0"></use><g><use xlink:href="#hnEAajvx" opacity="1" fill-opacity="0" stroke="#aba4a4" stroke-width="1" stroke-opacity="1"></use></g></g><g><use xlink:href="#ipRi92NO8" opacity="1" fill="#aba4a4" fill-opacity="1"></use><g><use xlink:href="#ipRi92NO8" opacity="1" fill-opacity="0" stroke="#000000" stroke-width="1" stroke-opacity="0"></use></g></g><g><use xlink:href="#cD36SsXFN" opacity="1" fill="#000000" fill-opacity="0"></use><g><use xlink:href="#cD36SsXFN" opacity="1" fill-opacity="0" stroke="#aba4a4" stroke-width="1" stroke-opacity="1"></use></g></g><g><use xlink:href="#aaesWoEOt" opacity="1" fill="#aba4a4" fill-opacity="1"></use><g><use xlink:href="#aaesWoEOt" opacity="1" fill-opacity="0" stroke="#000000" stroke-width="1" stroke-opacity="0"></use></g></g><g><use xlink:href="#a3wyOJk3JK" opacity="1" fill="#000000" fill-opacity="0"></use><g><use xlink:href="#a3wyOJk3JK" opacity="1" fill-opacity="0" stroke="#aba4a4" stroke-width="1" stroke-opacity="1"></use></g></g><g><use xlink:href="#c1V8U253Z" opacity="1" fill="#aba4a4" fill-opacity="1"></use><g><use xlink:href="#c1V8U253Z" opacity="1" fill-opacity="0" stroke="#000000" stroke-width="1" stroke-opacity="0"></use></g></g><g><use xlink:href="#c2xfLXeXcA" opacity="1" fill="#000000" fill-opacity="0"></use><g><use xlink:href="#c2xfLXeXcA" opacity="1" fill-opacity="0" stroke="#aba4a4" stroke-width="1" stroke-opacity="1"></use></g></g><g><use xlink:href="#ccV9tAcR2" opacity="1" fill="#aba4a4" fill-opacity="1"></use><g><use xlink:href="#ccV9tAcR2" opacity="1" fill-opacity="0" stroke="#000000" stroke-width="1" stroke-opacity="0"></use></g></g><g><use xlink:href="#c2BlaNOKx9" opacity="1" fill="#000000" fill-opacity="0"></use><g><use xlink:href="#c2BlaNOKx9" opacity="1" fill-opacity="0" stroke="#aba4a4" stroke-width="1" stroke-opacity="1"></use></g></g><g><use xlink:href="#c5iFUqWpEV" opacity="1" fill="#aba4a4" fill-opacity="1"></use><g><use xlink:href="#c5iFUqWpEV" opacity="1" fill-opacity="0" stroke="#000000" stroke-width="1" stroke-opacity="0"></use></g></g><g><use xlink:href="#b16UpIT06a" opacity="1" fill="#000000" fill-opacity="0"></use><g><use xlink:href="#b16UpIT06a" opacity="1" fill-opacity="0" stroke="#aba4a4" stroke-width="1" stroke-opacity="1"></use></g></g><g><use xlink:href="#h6jJx8KcTY" opacity="1" fill="#aba4a4" fill-opacity="1"></use><g><use xlink:href="#h6jJx8KcTY" opacity="1" fill-opacity="0" stroke="#000000" stroke-width="1" stroke-opacity="0"></use></g></g><g><use xlink:href="#bBInmeinR" opacity="1" fill="#000000" fill-opacity="0"></use><g><use xlink:href="#bBInmeinR" opacity="1" fill-opacity="0" stroke="#aba4a4" stroke-width="1" stroke-opacity="1"></use></g></g><g><use xlink:href="#aycwmFlu0" opacity="1" fill="#aba4a4" fill-opacity="1"></use><g><use xlink:href="#aycwmFlu0" opacity="1" fill-opacity="0" stroke="#000000" stroke-width="1" stroke-opacity="0"></use></g></g><g><use xlink:href="#d23b3FaDmB" opacity="1" fill="#000000" fill-opacity="0"></use><g><use xlink:href="#d23b3FaDmB" opacity="1" fill-opacity="0" stroke="#aba4a4" stroke-width="1" stroke-opacity="1"></use></g></g><g><use xlink:href="#e10JLQ6xb1" opacity="1" fill="#ff0000" fill-opacity="1"></use><g><use xlink:href="#e10JLQ6xb1" opacity="1" fill-opacity="0" stroke="#000000" stroke-width="1" stroke-opacity="0"></use></g></g><g><use xlink:href="#b3W8ef1NJ8" opacity="1" fill="#000000" fill-opacity="0"></use><g><use xlink:href="#b3W8ef1NJ8" opacity="1" fill-opacity="0" stroke="#ff0000" stroke-width="1" stroke-opacity="1"></use></g></g><g><use xlink:href="#c1Wi7zRSFd" opacity="1" fill="#ff0000" fill-opacity="1"></use><g><use xlink:href="#c1Wi7zRSFd" opacity="1" fill-opacity="0" stroke="#000000" stroke-width="1" stroke-opacity="0"></use></g></g><g><use xlink:href="#c2DfPhUzYK" opacity="1" fill="#000000" fill-opacity="0"></use><g><use xlink:href="#c2DfPhUzYK" opacity="1" fill-opacity="0" stroke="#ff0000" stroke-width="1" stroke-opacity="1"></use></g></g><g><use xlink:href="#c1SE5FU7g" opacity="1" fill="#ff0000" fill-opacity="1"></use><g><use xlink:href="#c1SE5FU7g" opacity="1" fill-opacity="0" stroke="#000000" stroke-width="1" stroke-opacity="0"></use></g></g><g><use xlink:href="#a7zQzVs0i6" opacity="1" fill="#000000" fill-opacity="0"></use><g><use xlink:href="#a7zQzVs0i6" opacity="1" fill-opacity="0" stroke="#ff0000" stroke-width="1" stroke-opacity="1"></use></g></g><g><use xlink:href="#a1yvzJKWNB" opacity="1" fill="#ff0000" fill-opacity="1"></use><g><use xlink:href="#a1yvzJKWNB" opacity="1" fill-opacity="0" stroke="#000000" stroke-width="1" stroke-opacity="0"></use></g></g><g><use xlink:href="#b4vJGqayxm" opacity="1" fill="#000000" fill-opacity="0"></use><g><use xlink:href="#b4vJGqayxm" opacity="1" fill-opacity="0" stroke="#ff0000" stroke-width="1" stroke-opacity="1"></use></g></g><g><use xlink:href="#c18r7PyRY1" opacity="1" fill="#ff0000" fill-opacity="1"></use><g><use xlink:href="#c18r7PyRY1" opacity="1" fill-opacity="0" stroke="#000000" stroke-width="1" stroke-opacity="0"></use></g></g><g><use xlink:href="#bfbsCZQuZ" opacity="1" fill="#000000" fill-opacity="0"></use><g><use xlink:href="#bfbsCZQuZ" opacity="1" fill-opacity="0" stroke="#ff0000" stroke-width="1" stroke-opacity="1"></use></g></g><g><use xlink:href="#a43UgEJAr8" opacity="1" fill="#000000" fill-opacity="0"></use><g><use xlink:href="#a43UgEJAr8" opacity="1" fill-opacity="0" stroke="#0045ff" stroke-width="1" stroke-opacity="1"></use></g></g><g><use xlink:href="#bHr9pPwsn" opacity="1" fill="#000000" fill-opacity="0"></use><g><use xlink:href="#bHr9pPwsn" opacity="1" fill-opacity="0" stroke="#0045ff" stroke-width="1" stroke-opacity="1"></use></g></g><g><use xlink:href="#b4g3cpiZe5" opacity="1" fill="#000000" fill-opacity="0"></use><g><use xlink:href="#b4g3cpiZe5" opacity="1" fill-opacity="0" stroke="#0045ff" stroke-width="1" stroke-opacity="1"></use></g></g><g><use xlink:href="#g29X8HuFIc" opacity="1" fill="#000000" fill-opacity="0"></use><g><use xlink:href="#g29X8HuFIc" opacity="1" fill-opacity="0" stroke="#0045ff" stroke-width="1" stroke-opacity="1"></use></g></g><g><use xlink:href="#b1BnAvUfB8" opacity="1" fill="#000000" fill-opacity="0"></use><g><use xlink:href="#b1BnAvUfB8" opacity="1" fill-opacity="0" stroke="#0045ff" stroke-width="1" stroke-opacity="1"></use></g></g><g><use xlink:href="#a1xByHmQCG" opacity="1" fill="#000000" fill-opacity="0"></use><g><use xlink:href="#a1xByHmQCG" opacity="1" fill-opacity="0" stroke="#0045ff" stroke-width="1" stroke-opacity="1"></use></g></g><g><use xlink:href="#i35LA0Dmy5" opacity="1" fill="#aba4a4" fill-opacity="1"></use><g><use xlink:href="#i35LA0Dmy5" opacity="1" fill-opacity="0" stroke="#aba4a4" stroke-width="1" stroke-opacity="1"></use></g></g><g><use xlink:href="#b1cYgQhJjz" opacity="1" fill="#aba4a4" fill-opacity="1"></use><g><use xlink:href="#b1cYgQhJjz" opacity="1" fill-opacity="0" stroke="#aba4a4" stroke-width="1" stroke-opacity="1"></use></g></g><g><use xlink:href="#a39AmmP6SR" opacity="1" fill="#aba4a4" fill-opacity="1"></use><g><use xlink:href="#a39AmmP6SR" opacity="1" fill-opacity="0" stroke="#aba4a4" stroke-width="1" stroke-opacity="1"></use></g></g><g><use xlink:href="#e35KMrZz3" opacity="1" fill="#aba4a4" fill-opacity="1"></use><g><use xlink:href="#e35KMrZz3" opacity="1" fill-opacity="0" stroke="#aba4a4" stroke-width="1" stroke-opacity="1"></use></g></g><g><use xlink:href="#b9bPn1SfHU" opacity="1" fill="#ff0000" fill-opacity="1"></use><g><use xlink:href="#b9bPn1SfHU" opacity="1" fill-opacity="0" stroke="#ff0000" stroke-width="1" stroke-opacity="1"></use></g></g><g><use xlink:href="#a17cEMxz5H" opacity="1" fill="#aba4a4" fill-opacity="1"></use><g><use xlink:href="#a17cEMxz5H" opacity="1" fill-opacity="0" stroke="#aba4a4" stroke-width="1" stroke-opacity="1"></use></g></g><g><use xlink:href="#h1ZlDidyDM" opacity="1" fill="#aba4a4" fill-opacity="1"></use><g><use xlink:href="#h1ZlDidyDM" opacity="1" fill-opacity="0" stroke="#aba4a4" stroke-width="1" stroke-opacity="1"></use></g></g><g><use xlink:href="#e1BF0ETPIL" opacity="1" fill="#aba4a4" fill-opacity="1"></use><g><use xlink:href="#e1BF0ETPIL" opacity="1" fill-opacity="0" stroke="#aba4a4" stroke-width="1" stroke-opacity="1"></use></g></g><g><use xlink:href="#a8r6HzuEW" opacity="1" fill="#ff0000" fill-opacity="1"></use><g><use xlink:href="#a8r6HzuEW" opacity="1" fill-opacity="0" stroke="#ff0000" stroke-width="1" stroke-opacity="1"></use></g></g><g><use xlink:href="#b1Iu60RE3K" opacity="1" fill="#ff0000" fill-opacity="1"></use><g><use xlink:href="#b1Iu60RE3K" opacity="1" fill-opacity="0" stroke="#ff0000" stroke-width="1" stroke-opacity="1"></use></g></g><g><use xlink:href="#b1GcAVlTL0" opacity="1" fill="#ff0000" fill-opacity="1"></use><g><use xlink:href="#b1GcAVlTL0" opacity="1" fill-opacity="0" stroke="#ff0000" stroke-width="1" stroke-opacity="1"></use></g></g><g><use xlink:href="#o1HregpPJq" opacity="1" fill="#ff0000" fill-opacity="1"></use><g><use xlink:href="#o1HregpPJq" opacity="1" fill-opacity="0" stroke="#ff0000" stroke-width="1" stroke-opacity="1"></use></g></g></g></g></svg>