<?xml version="1.0" encoding="UTF-8" standalone="no"?>
<!DOCTYPE svg PUBLIC "-//W3C//DTD SVG 1.1//EN" "http://www.w3.org/Graphics/SVG/1.1/DTD/svg11.dtd">
<svg version="1.1" xmlns="http://www.w3.org/2000/svg" xmlns:xlink="http://www.w3.org/1999/xlink" preserveAspectRatio="xMidYMid meet" viewBox="0 0 640 640" width="640" height="640"><defs><path d="M142.88 337.7L109.09 236.23L224.54 166.16" id="bvkgPmgGF"></path><path d="M307.26 476.86C307.26 484.38 301.15 490.49 293.63 490.49C286.11 490.49 280 484.38 280 476.86C280 469.34 286.11 463.23 293.63 463.23C301.15 463.23 307.26 469.34 307.26 476.86Z" id="b3dFxxQdrj"></path><path d="M576.23 358.06L472.72 285.15L459.09 173.23" id="b1twGhEuF5"></path><path d="M413.96 472.37L293.63 476.86" id="e4rtYVDEod"></path><path d="M222.06 159.6L405.2 466.51L139.25 341.5L581.17 363.79L230.02 171.1L465.71 282.58L144.82 330.35L222.06 168.71L291.33 483.23L465.71 173.23L573.21 358.06L413.96 470.49L474.66 285.15L293.63 476.86L144.82 337.7L459.09 173.23L227.63 162.34" id="hqXnSfvoQ"></path><path d="M472.72 285.15L109.09 236.23L456.96 173.23" id="a6Yn6I5w0e"></path><path d="M156.51 337.7C156.51 345.23 150.4 351.33 142.88 351.33C135.36 351.33 129.25 345.23 129.25 337.7C129.25 330.18 135.36 324.07 142.88 324.07C150.4 324.07 156.51 330.18 156.51 337.7Z" id="c40SyZn2jx"></path><path d="M238.17 166.16C238.17 173.68 232.07 179.79 224.54 179.79C217.02 179.79 210.91 173.68 210.91 166.16C210.91 158.64 217.02 152.53 224.54 152.53C232.07 152.53 238.17 158.64 238.17 166.16Z" id="agwSomQJY"></path><path d="M445.46 173.23C445.46 180.75 451.56 186.86 459.09 186.86C466.61 186.86 472.72 180.75 472.72 173.23C472.72 165.71 466.61 159.6 459.09 159.6C451.56 159.6 445.46 165.71 445.46 173.23Z" id="a5crZCUMCP"></path><path d="M461.03 285.15C461.03 292.67 467.14 298.78 474.66 298.78C482.18 298.78 488.29 292.67 488.29 285.15C488.29 277.63 482.18 271.52 474.66 271.52C467.14 271.52 461.03 277.63 461.03 285.15Z" id="a2B1yr86YZ"></path><path d="M562.6 358.06C562.6 365.58 568.71 371.69 576.23 371.69C583.75 371.69 589.86 365.58 589.86 358.06C589.86 350.53 583.75 344.43 576.23 344.43C568.71 344.43 562.6 350.53 562.6 358.06Z" id="c2l33TcMA"></path><path d="M424.68 472.37C424.68 479.89 418.58 486 411.05 486C403.53 486 397.42 479.89 397.42 472.37C397.42 464.84 403.53 458.74 411.05 458.74C418.58 458.74 424.68 464.84 424.68 472.37Z" id="f24MAMM4Qq"></path><path d="M122.72 236.23C122.72 243.75 116.61 249.86 109.09 249.86C101.56 249.86 95.46 243.75 95.46 236.23C95.46 228.71 101.56 222.6 109.09 222.6C116.61 222.6 122.72 228.71 122.72 236.23Z" id="b27x06f1dh"></path><path d="M307.26 476.86C307.26 484.38 301.15 490.49 293.63 490.49C286.11 490.49 280 484.38 280 476.86C280 469.34 286.11 463.23 293.63 463.23C301.15 463.23 307.26 469.34 307.26 476.86Z" id="bdQjov4Zn"></path></defs><g><g><g><g><use xlink:href="#bvkgPmgGF" opacity="1" fill-opacity="0" stroke="#ff0000" stroke-width="1" stroke-opacity="1"></use></g></g><g><use xlink:href="#b3dFxxQdrj" opacity="1" fill="#ff0000" fill-opacity="1"></use></g><g><g><use xlink:href="#b1twGhEuF5" opacity="1" fill-opacity="0" stroke="#ff0000" stroke-width="1" stroke-opacity="1"></use></g></g><g><g><use xlink:href="#e4rtYVDEod" opacity="1" fill-opacity="0" stroke="#ff0000" stroke-width="1" stroke-opacity="1"></use></g></g><g><g><use xlink:href="#hqXnSfvoQ" opacity="1" fill-opacity="0" stroke="#0045ff" stroke-width="1" stroke-opacity="1"></use></g></g><g><g><use xlink:href="#a6Yn6I5w0e" opacity="1" fill-opacity="0" stroke="#0045ff" stroke-width="1" stroke-opacity="1"></use></g></g><g><use xlink:href="#c40SyZn2jx" opacity="1" fill="#ff0000" fill-opacity="1"></use></g><g><use xlink:href="#agwSomQJY" opacity="1" fill="#ff0000" fill-opacity="1"></use></g><g><use xlink:href="#a5crZCUMCP" opacity="1" fill="#ff0000" fill-opacity="1"></use></g><g><use xlink:href="#a2B1yr86YZ" opacity="1" fill="#ff0000" fill-opacity="1"></use></g><g><use xlink:href="#c2l33TcMA" opacity="1" fill="#ff0000" fill-opacity="1"></use></g><g><use xlink:href="#f24MAMM4Qq" opacity="1" fill="#ff0000" fill-opacity="1"></use></g><g><use xlink:href="#b27x06f1dh" opacity="1" fill="#ff0000" fill-opacity="1"></use></g><g><use xlink:href="#bdQjov4Zn" opacity="1" fill="#ff0000" fill-opacity="1"></use></g></g></g></svg>