<?xml version="1.0" encoding="UTF-8" standalone="no"?>
<!DOCTYPE svg PUBLIC "-//W3C//DTD SVG 1.1//EN" "http://www.w3.org/Graphics/SVG/1.1/DTD/svg11.dtd">
<svg version="1.1" xmlns="http://www.w3.org/2000/svg" xmlns:xlink="http://www.w3.org/1999/xlink" preserveAspectRatio="xMidYMid meet" viewBox="0 0 640 640" width="640" height="640"><defs><path d="M70 266.9C70 272.03 65.84 276.19 60.71 276.19C55.59 276.19 51.43 272.03 51.43 266.9C51.43 261.78 55.59 257.62 60.71 257.62C65.84 257.62 70 261.78 70 266.9Z" id="b2ADvYPUYZ"></path><path d="M194.6 340L380 375.56L326.35 494.6L265.24 395.4" id="a4lSLH3p5r"></path><path d="M257.3 395.4L267.62 255.71L380 366.83L450 304.92L270 403.33L362.86 192.22L362.06 281.9L460 223.97L458.1 303.33L560 308.1L501.75 400L380 377.14L460 490L326.35 494.6L225.56 496.98L264.44 397.78L138.25 440L67.62 263.65L153.33 266.83L73.97 370L60 270L193.02 342.22L358.1 182.7L270 247.78L160 267.62L115.24 200" id="c29GNU5SHb"></path><path d="M115.24 205.71L60 264.44" id="cAom9AGgB"></path><path d="M73.17 367.62L60 270" id="a2yb6252u"></path><path d="M326.35 493.02L227.94 496.98" id="eGGZ92ce1"></path><path d="M460 223.97L500 400L380 375.56" id="cZjFmwdYX"></path><path d="M468.57 224.68C468.57 229.81 464.41 233.97 459.29 233.97C454.16 233.97 450 229.81 450 224.68C450 219.56 454.16 215.4 459.29 215.4C464.41 215.4 468.57 219.56 468.57 224.68Z" id="aoOFqD0gz"></path><path d="M334.44 496.11C334.44 501.24 330.28 505.4 325.16 505.4C320.03 505.4 315.87 501.24 315.87 496.11C315.87 490.99 320.03 486.83 325.16 486.83C330.28 486.83 334.44 490.99 334.44 496.11Z" id="cbfSqk8Vb"></path><path d="M170 266.43C170 271.55 165.84 275.71 160.71 275.71C155.59 275.71 151.43 271.55 151.43 266.43C151.43 261.3 155.59 257.14 160.71 257.14C165.84 257.14 170 261.3 170 266.43Z" id="b3JHMhzzCx"></path><path d="M390 374.21C390 379.33 385.84 383.49 380.71 383.49C375.59 383.49 371.43 379.33 371.43 374.21C371.43 369.08 375.59 364.92 380.71 364.92C385.84 364.92 390 369.08 390 374.21Z" id="d5GVPzbz7C"></path><path d="M137.46 437.46L196.98 340L227.14 496.19L500 400L362.06 283.49L160 270L190 343.02L76.35 367.62" id="dTTZDJ4EF"></path><path d="M570 309.29C570 314.41 565.84 318.57 560.71 318.57C555.59 318.57 551.43 314.41 551.43 309.29C551.43 304.16 555.59 300 560.71 300C565.84 300 570 304.16 570 309.29Z" id="am2197Di5"></path><path d="M474.29 489.29C474.29 494.41 470.12 498.57 465 498.57C459.88 498.57 455.71 494.41 455.71 489.29C455.71 484.16 459.88 480 465 480C470.12 480 474.29 484.16 474.29 489.29Z" id="bRehOvFMZ"></path><path d="M370 187.06C370 192.19 365.84 196.35 360.71 196.35C355.59 196.35 351.43 192.19 351.43 187.06C351.43 181.94 355.59 177.78 360.71 177.78C365.84 177.78 370 181.94 370 187.06Z" id="a1NftbI2bM"></path><path d="M203.33 340.71C203.33 345.84 199.17 350 194.05 350C188.92 350 184.76 345.84 184.76 340.71C184.76 335.59 188.92 331.43 194.05 331.43C199.17 331.43 203.33 335.59 203.33 340.71Z" id="c1PwhH1H2"></path><path d="M148.57 439.29C148.57 444.41 144.41 448.57 139.29 448.57C134.16 448.57 130 444.41 130 439.29C130 434.16 134.16 430 139.29 430C144.41 430 148.57 434.16 148.57 439.29Z" id="k1bhi940XM"></path><path d="M278.57 246.9C278.57 252.03 274.41 256.19 269.29 256.19C264.16 256.19 260 252.03 260 246.9C260 241.78 264.16 237.62 269.29 237.62C274.41 237.62 278.57 241.78 278.57 246.9Z" id="c1ZJEHuugu"></path><path d="M371.67 282.94C371.67 288.06 367.51 292.22 362.38 292.22C357.26 292.22 353.1 288.06 353.1 282.94C353.1 277.81 357.26 273.65 362.38 273.65C367.51 273.65 371.67 277.81 371.67 282.94Z" id="blf6Cwhlf"></path><path d="M271.59 399.29C271.59 404.41 267.43 408.57 262.3 408.57C257.18 408.57 253.02 404.41 253.02 399.29C253.02 394.16 257.18 390 262.3 390C267.43 390 271.59 394.16 271.59 399.29Z" id="a1jeA63ow9"></path><path d="M465.71 304.52C465.71 309.65 461.55 313.81 456.43 313.81C451.3 313.81 447.14 309.65 447.14 304.52C447.14 299.4 451.3 295.24 456.43 295.24C461.55 295.24 465.71 299.4 465.71 304.52Z" id="b47uFgoBO"></path><path d="M124.92 203.73C124.92 208.86 120.76 213.02 115.63 213.02C110.51 213.02 106.35 208.86 106.35 203.73C106.35 198.61 110.51 194.44 115.63 194.44C120.76 194.44 124.92 198.61 124.92 203.73Z" id="c7DGqkT9et"></path><path d="M70 266.9C70 272.03 65.84 276.19 60.71 276.19C55.59 276.19 51.43 272.03 51.43 266.9C51.43 261.78 55.59 257.62 60.71 257.62C65.84 257.62 70 261.78 70 266.9Z" id="iFJmkWoGl"></path><path d="M239.29 497.22C239.29 502.35 235.12 506.51 230 506.51C224.88 506.51 220.71 502.35 220.71 497.22C220.71 492.1 224.88 487.94 230 487.94C235.12 487.94 239.29 492.1 239.29 497.22Z" id="b1uqWshE46"></path><path d="M510 400C510 405.12 505.84 409.29 500.71 409.29C495.59 409.29 491.43 405.12 491.43 400C491.43 394.88 495.59 390.71 500.71 390.71C505.84 390.71 510 394.88 510 400Z" id="fNtfS9Ift"></path><path d="M85.56 369.29C85.56 374.41 81.39 378.57 76.27 378.57C71.14 378.57 66.98 374.41 66.98 369.29C66.98 364.16 71.14 360 76.27 360C81.39 360 85.56 364.16 85.56 369.29Z" id="a1Md5HPmfJ"></path></defs><g><g><g><use xlink:href="#b2ADvYPUYZ" opacity="1" fill="#ff0000" fill-opacity="1"></use><g><use xlink:href="#b2ADvYPUYZ" opacity="1" fill-opacity="0" stroke="#ff0000" stroke-width="1" stroke-opacity="1"></use></g></g><g><g><use xlink:href="#a4lSLH3p5r" opacity="1" fill-opacity="0" stroke="#aba4a4" stroke-width="1" stroke-opacity="1"></use></g></g><g><g><use xlink:href="#c29GNU5SHb" opacity="1" fill-opacity="0" stroke="#aba4a4" stroke-width="1" stroke-opacity="1"></use></g></g><g><use xlink:href="#cAom9AGgB" opacity="1" fill="#ff0000" fill-opacity="1"></use><g><use xlink:href="#cAom9AGgB" opacity="1" fill-opacity="0" stroke="#ff0000" stroke-width="1" stroke-opacity="1"></use></g></g><g><g><use xlink:href="#a2yb6252u" opacity="1" fill-opacity="0" stroke="#ff0000" stroke-width="1" stroke-opacity="1"></use></g></g><g><g><use xlink:href="#eGGZ92ce1" opacity="1" fill-opacity="0" stroke="#ff0000" stroke-width="1" stroke-opacity="1"></use></g></g><g><g><use xlink:href="#cZjFmwdYX" opacity="1" fill-opacity="0" stroke="#ff0000" stroke-width="1" stroke-opacity="1"></use></g></g><g><use xlink:href="#aoOFqD0gz" opacity="1" fill="#ff0000" fill-opacity="1"></use><g><use xlink:href="#aoOFqD0gz" opacity="1" fill-opacity="0" stroke="#ff0000" stroke-width="1" stroke-opacity="1"></use></g></g><g><use xlink:href="#cbfSqk8Vb" opacity="1" fill="#ff0000" fill-opacity="1"></use><g><use xlink:href="#cbfSqk8Vb" opacity="1" fill-opacity="0" stroke="#ff0000" stroke-width="1" stroke-opacity="1"></use></g></g><g><use xlink:href="#b3JHMhzzCx" opacity="1" fill="#aba4a4" fill-opacity="1"></use><g><use xlink:href="#b3JHMhzzCx" opacity="1" fill-opacity="0" stroke="#aba4a4" stroke-width="1" stroke-opacity="1"></use></g></g><g><use xlink:href="#d5GVPzbz7C" opacity="1" fill="#ff0000" fill-opacity="1"></use><g><use xlink:href="#d5GVPzbz7C" opacity="1" fill-opacity="0" stroke="#ff0000" stroke-width="1" stroke-opacity="1"></use></g></g><g><g><use xlink:href="#dTTZDJ4EF" opacity="1" fill-opacity="0" stroke="#aba4a4" stroke-width="1" stroke-opacity="1"></use></g></g><g><use xlink:href="#am2197Di5" opacity="1" fill="#aba4a4" fill-opacity="1"></use><g><use xlink:href="#am2197Di5" opacity="1" fill-opacity="0" stroke="#aba4a4" stroke-width="1" stroke-opacity="1"></use></g></g><g><use xlink:href="#bRehOvFMZ" opacity="1" fill="#aba4a4" fill-opacity="1"></use><g><use xlink:href="#bRehOvFMZ" opacity="1" fill-opacity="0" stroke="#aba4a4" stroke-width="1" stroke-opacity="1"></use></g></g><g><use xlink:href="#a1NftbI2bM" opacity="1" fill="#aba4a4" fill-opacity="1"></use><g><use xlink:href="#a1NftbI2bM" opacity="1" fill-opacity="0" stroke="#aba4a4" stroke-width="1" stroke-opacity="1"></use></g></g><g><use xlink:href="#c1PwhH1H2" opacity="1" fill="#aba4a4" fill-opacity="1"></use><g><use xlink:href="#c1PwhH1H2" opacity="1" fill-opacity="0" stroke="#aba4a4" stroke-width="1" stroke-opacity="1"></use></g></g><g><use xlink:href="#k1bhi940XM" opacity="1" fill="#aba4a4" fill-opacity="1"></use><g><use xlink:href="#k1bhi940XM" opacity="1" fill-opacity="0" stroke="#aba4a4" stroke-width="1" stroke-opacity="1"></use></g></g><g><use xlink:href="#c1ZJEHuugu" opacity="1" fill="#aba4a4" fill-opacity="1"></use><g><use xlink:href="#c1ZJEHuugu" opacity="1" fill-opacity="0" stroke="#aba4a4" stroke-width="1" stroke-opacity="1"></use></g></g><g><use xlink:href="#blf6Cwhlf" opacity="1" fill="#aba4a4" fill-opacity="1"></use><g><use xlink:href="#blf6Cwhlf" opacity="1" fill-opacity="0" stroke="#aba4a4" stroke-width="1" stroke-opacity="1"></use></g></g><g><use xlink:href="#a1jeA63ow9" opacity="1" fill="#aba4a4" fill-opacity="1"></use><g><use xlink:href="#a1jeA63ow9" opacity="1" fill-opacity="0" stroke="#aba4a4" stroke-width="1" stroke-opacity="1"></use></g></g><g><use xlink:href="#b47uFgoBO" opacity="1" fill="#aba4a4" fill-opacity="1"></use><g><use xlink:href="#b47uFgoBO" opacity="1" fill-opacity="0" stroke="#aba4a4" stroke-width="1" stroke-opacity="1"></use></g></g><g><g><filter id="shadow4391922" x="97.35" y="185.44" width="37.57" height="37.57" filterUnits="userSpaceOnUse" primitiveUnits="userSpaceOnUse"><feFlood></feFlood><feComposite in2="SourceAlpha" operator="in"></feComposite><feGaussianBlur stdDeviation="1"></feGaussianBlur><feOffset dx="1" dy="1" result="afterOffset"></feOffset><feFlood flood-color="#000000" flood-opacity="0.5"></feFlood><feComposite in2="afterOffset" operator="in"></feComposite><feMorphology operator="dilate" radius="1"></feMorphology><feComposite in2="SourceAlpha" operator="out"></feComposite></filter><path d="M124.92 203.73C124.92 208.86 120.76 213.02 115.63 213.02C110.51 213.02 106.35 208.86 106.35 203.73C106.35 198.61 110.51 194.44 115.63 194.44C120.76 194.44 124.92 198.61 124.92 203.73Z" id="cN4TabkmV" fill="white" fill-opacity="1" filter="url(#shadow4391922)"></path></g><use xlink:href="#c7DGqkT9et" opacity="1" fill="#ff0000" fill-opacity="1"></use><g><use xlink:href="#c7DGqkT9et" opacity="1" fill-opacity="0" stroke="#ff0000" stroke-width="1" stroke-opacity="1"></use></g></g><g><g><filter id="shadow4487401" x="42.43" y="248.62" width="37.57" height="37.57" filterUnits="userSpaceOnUse" primitiveUnits="userSpaceOnUse"><feFlood></feFlood><feComposite in2="SourceAlpha" operator="in"></feComposite><feGaussianBlur stdDeviation="1"></feGaussianBlur><feOffset dx="1" dy="1" result="afterOffset"></feOffset><feFlood flood-color="#000000" flood-opacity="0.5"></feFlood><feComposite in2="afterOffset" operator="in"></feComposite><feMorphology operator="dilate" radius="1"></feMorphology><feComposite in2="SourceAlpha" operator="out"></feComposite></filter><path d="M70 266.9C70 272.03 65.84 276.19 60.71 276.19C55.59 276.19 51.43 272.03 51.43 266.9C51.43 261.78 55.59 257.62 60.71 257.62C65.84 257.62 70 261.78 70 266.9Z" id="h3Esk2fp0V" fill="white" fill-opacity="1" filter="url(#shadow4487401)"></path></g><use xlink:href="#iFJmkWoGl" opacity="1" fill="#ff0000" fill-opacity="1"></use><g><use xlink:href="#iFJmkWoGl" opacity="1" fill-opacity="0" stroke="#ff0000" stroke-width="1" stroke-opacity="1"></use></g></g><g><use xlink:href="#b1uqWshE46" opacity="1" fill="#ff0000" fill-opacity="1"></use><g><use xlink:href="#b1uqWshE46" opacity="1" fill-opacity="0" stroke="#ff0000" stroke-width="1" stroke-opacity="1"></use></g></g><g><use xlink:href="#fNtfS9Ift" opacity="1" fill="#ff0000" fill-opacity="1"></use><g><use xlink:href="#fNtfS9Ift" opacity="1" fill-opacity="0" stroke="#ff0000" stroke-width="1" stroke-opacity="1"></use></g></g><g><use xlink:href="#a1Md5HPmfJ" opacity="1" fill="#ff0000" fill-opacity="1"></use><g><use xlink:href="#a1Md5HPmfJ" opacity="1" fill-opacity="0" stroke="#ff0000" stroke-width="1" stroke-opacity="1"></use></g></g></g></g></svg>